<svg xmlns="http://www.w3.org/2000/svg" viewBox="0 0 20 20" fill="currentColor">
  <path d="M16.93 3.463a15.96 15.96 0 0 0-4.07-1.263.065.065 0 0 0-.066.031c-.175.313-.37.721-.506 1.042a15.202 15.202 0 0 0-4.573 0 11.38 11.38 0 0 0-.515-1.042.065.065 0 0 0-.065-.03 15.93 15.93 0 0 0-4.071 1.262.063.063 0 0 0-.027.023C.444 7.36-.266 11.138.083 14.87a.075.075 0 0 0 .026.047c1.71 1.256 3.367 2.019 4.994 2.524a.067.067 0 0 0 .07-.023c.385-.525.728-1.079 1.022-1.661a.064.064 0 0 0-.035-.089 12.025 12.025 0 0 1-1.56-.744c-.04-.023-.043-.08-.007-.106.105-.079.21-.16.31-.243a.063.063 0 0 1 .065-.009c3.273 1.494 6.817 1.494 10.051 0a.063.063 0 0 1 .066.008c.1.083.205.165.31.244.037.027.034.083-.005.106-.499.292-1.017.538-1.561.743a.064.064 0 0 0-.034.09c.3.581.643 1.135 1.02 1.66a.067.067 0 0 0 .071.024c1.634-.506 3.291-1.269 5.002-2.525a.075.075 0 0 0 .026-.046c.417-4.314-.699-8.061-2.957-11.383a.062.062 0 0 0-.026-.024ZM6.683 12.598c-.985 0-1.797-.905-1.797-2.016s.796-2.016 1.797-2.016c1.01 0 1.813.913 1.798 2.016 0 1.11-.797 2.016-1.798 2.016Zm6.646 0c-.985 0-1.797-.905-1.797-2.016s.796-2.016 1.797-2.016c1.009 0 1.813.913 1.797 2.016 0 1.11-.788 2.016-1.797 2.016Z"/>
</svg>
