<svg xmlns="http://www.w3.org/2000/svg" viewBox="0 0 20 20" fill="currentColor">
  <path d="M10 1.801c2.672 0 2.988.012 4.04.059.976.043 1.503.207 1.855.343.465.18.8.399 1.148.746.352.352.566.684.746 1.149.137.351.3.883.344 1.855.047 1.055.058 1.371.058 4.04 0 2.671-.011 2.988-.058 4.038-.043.977-.207 1.504-.344 1.856-.18.464-.398.8-.746 1.148-.352.351-.684.566-1.148.746-.352.137-.883.3-1.856.344-1.054.047-1.37.058-4.039.058-2.672 0-2.988-.011-4.04-.058-.976-.043-1.503-.207-1.855-.344-.464-.18-.8-.398-1.148-.746-.351-.351-.566-.683-.746-1.148-.137-.352-.3-.883-.344-1.856-.047-1.054-.058-1.37-.058-4.039 0-2.672.011-2.988.058-4.039.043-.976.207-1.504.344-1.855.18-.465.398-.801.746-1.149.352-.351.684-.566 1.148-.746.352-.136.883-.3 1.856-.343C7.012 1.813 7.328 1.8 10 1.8ZM10 0C7.285 0 6.945.012 5.879.059 4.816.105 4.086.277 3.453.523 2.793.781 2.234 1.121 1.68 1.68 1.12 2.234.78 2.793.523 3.45.277 4.086.105 4.812.06 5.875.012 6.945 0 7.285 0 10c0 2.715.012 3.055.059 4.121.046 1.063.218 1.793.464 2.426.258.66.598 1.219 1.157 1.773.554.555 1.113.899 1.77 1.153.636.246 1.362.418 2.425.465 1.066.046 1.406.058 4.121.058s3.055-.012 4.121-.058c1.063-.047 1.793-.22 2.426-.465.656-.254 1.215-.598 1.77-1.153.554-.554.898-1.113 1.152-1.77.246-.636.418-1.362.465-2.425.047-1.066.058-1.406.058-4.121s-.011-3.055-.058-4.121c-.047-1.063-.219-1.793-.465-2.426-.246-.664-.586-1.223-1.144-1.778C17.766 1.125 17.207.781 16.55.527 15.914.281 15.188.11 14.125.063 13.055.01 12.715 0 10 0Z"/>
  <path d="M10 4.863A5.137 5.137 0 1 0 10 15.137 5.137 5.137 0 0 0 10 4.863Zm0 8.469A3.332 3.332 0 1 1 10 6.668a3.332 3.332 0 0 1 0 6.664ZM16.54 4.66a1.2 1.2 0 1 1-2.4 0 1.2 1.2 0 0 1 2.4 0Z"/>
</svg>
