<?xml version="1.0" encoding="UTF-8"?>
<svg width="1000px" height="1000px" viewBox="0 0 1000 1000" version="1.1" xmlns="http://www.w3.org/2000/svg" xmlns:xlink="http://www.w3.org/1999/xlink">
    <title>k dark yellow</title>
    <g id="Page-1" stroke="none" stroke-width="1" fill="none" fill-rule="evenodd">
        <g id="k-dark-yellow" transform="translate(0.000000, 0.000000)">
            <rect id="Rectangle" fill="#CDFF00" x="0" y="0" width="1000" height="1000"></rect>
            <path d="M478.172069,293 L584.777568,293 C595.823263,293 604.777568,301.954305 604.777568,313 L604.777568,468.074942 C604.777568,479.120637 613.731873,488.074942 624.777568,488.074942 L739,488.074942 C750.045695,488.074942 759,497.029247 759,508.074942 L759,687 C759,698.045695 750.045695,707 739,707 L642.842574,707 C596.099082,707 558.205994,669.106912 558.205994,622.36342 L558.205994,557.72684 C558.205994,546.681145 549.251689,537.72684 538.205994,537.72684 L525.301306,537.72684 C519.232047,537.72684 513.491137,540.482832 509.695367,545.218656 L386.032079,699.508184 C382.236309,704.244008 376.495399,707 370.42614,707 L258,707 C248.611159,707 241,699.388841 241,690 L241,582.368948 C241,578.034088 242.4823,573.829557 245.2009,570.453134 L462.594069,300.457038 C466.390585,295.741873 472.118449,293 478.172069,293 Z" id="Rectangle" fill="#0E1117"></path>
        </g>
    </g>
</svg>
