<?xml version="1.0" encoding="UTF-8"?>
<svg width="171px" height="171px" viewBox="0 0 171 171" version="1.1" xmlns="http://www.w3.org/2000/svg" xmlns:xlink="http://www.w3.org/1999/xlink">
    <title>pandascore</title>
    <g id="Page-1" stroke="none" stroke-width="1" fill="none" fill-rule="evenodd">
        <g id="pandascore">
            <circle id="Oval" fill="#8F64E2" cx="85.5" cy="85.5" r="85.5"></circle>
            <path d="M17,77.1783 L23.86456,77.1783 C24.8216,77.1783 25.72643,77.26012 26.57906,77.42377 C27.4317,77.58743 28.1712,77.87382 28.7976,78.28295 C29.4415,78.67571 29.9461,79.21576 30.3115,79.9031 C30.6943,80.57407 30.8857,81.42506 30.8857,82.45607 C30.8857,83.47071 30.7117,84.3217 30.3637,85.009 C30.0157,85.6964 29.5372,86.2446 28.9282,86.6537 C28.3191,87.0629 27.597,87.3574 26.76177,87.5375 C25.92654,87.7011 25.0217,87.7829 24.04727,87.7829 L21.07175,87.7829 L21.07175,94.5581 L17,94.5581 L17,77.1783 Z M21.07175,84.5426 L23.78626,84.5426 C24.15167,84.5426 24.49968,84.5099 24.8303,84.4444 C25.17831,84.379 25.48282,84.2726 25.74383,84.1253 C26.02224,83.96167 26.23975,83.74892 26.39635,83.48708 C26.57036,83.20887 26.65736,82.8652 26.65736,82.45607 C26.65736,82.01421 26.54426,81.66236 26.31805,81.40052 C26.10924,81.12231 25.83083,80.90956 25.48282,80.76227 C25.15221,80.61499 24.77809,80.52498 24.36048,80.49225 C23.94286,80.44315 23.54265,80.4186 23.15983,80.4186 L21.07175,80.4186 L21.07175,84.5426 Z" id="Shape" fill="#FCFCFC" fill-rule="nonzero"></path>
            <path d="M40.3834,93.0607 L40.3312,93.0607 C39.8962,93.699 39.3133,94.1572 38.5825,94.4354 C37.869,94.7136 37.1121,94.8527 36.3117,94.8527 C35.72,94.8527 35.1458,94.7709 34.589,94.6072 C34.0496,94.4599 33.5711,94.2308 33.1535,93.9199 C32.7358,93.609 32.4052,93.2244 32.1616,92.7661 C31.918,92.3079 31.7962,91.7761 31.7962,91.1705 C31.7962,90.4832 31.9267,89.9022 32.1877,89.4276 C32.4661,88.9531 32.8315,88.5603 33.284,88.2494 C33.7538,87.9384 34.2845,87.7011 34.8761,87.5375 C35.4677,87.3574 36.0768,87.2265 36.7032,87.1447 C37.347,87.0629 37.9821,87.0138 38.6086,86.9974 C39.2524,86.9811 39.844,86.9729 40.3834,86.9729 C40.3834,86.3183 40.1311,85.8028 39.6265,85.4264 C39.1393,85.0336 38.5564,84.8372 37.8777,84.8372 C37.2339,84.8372 36.6423,84.9681 36.1029,85.23 C35.5808,85.4755 35.111,85.8191 34.6934,86.261 L32.6053,84.2481 C33.3362,83.60982 34.1888,83.13523 35.1632,82.82429 C36.1377,82.49699 37.1469,82.33333 38.1909,82.33333 C39.3394,82.33333 40.279,82.47244 41.0098,82.75065 C41.7581,83.01249 42.3497,83.40525 42.7847,83.92894 C43.2371,84.4526 43.5503,85.0991 43.7243,85.8682 C43.8984,86.621 43.9854,87.4966 43.9854,88.4948 L43.9854,94.5581 L40.3834,94.5581 L40.3834,93.0607 Z M39.4177,89.3295 C39.1219,89.3295 38.7478,89.3458 38.2953,89.3786 C37.8603,89.3949 37.434,89.4604 37.0164,89.5749 C36.6162,89.6895 36.2682,89.8613 35.9724,90.0904 C35.6939,90.3196 35.5547,90.6387 35.5547,91.0478 C35.5547,91.4897 35.7548,91.817 36.1551,92.0297 C36.5553,92.2425 36.9729,92.3488 37.4079,92.3488 C37.7907,92.3488 38.1561,92.2997 38.5042,92.2015 C38.8696,92.1034 39.1915,91.9643 39.4699,91.7842 C39.7483,91.6042 39.9658,91.3751 40.1224,91.0969 C40.2964,90.8187 40.3834,90.4914 40.3834,90.115 L40.3834,89.3295 L39.4177,89.3295 Z" id="Shape" fill="#FCFCFC" fill-rule="nonzero"></path>
            <path d="M45.9197,82.62791 L49.6782,82.62791 L49.6782,84.2481 L49.7304,84.2481 C49.8522,84.0189 50.0262,83.78984 50.2524,83.56072 C50.4787,83.33161 50.7484,83.12705 51.0616,82.94703 C51.3748,82.76701 51.7315,82.61972 52.1317,82.50517 C52.5319,82.39061 52.967,82.33333 53.4368,82.33333 C54.4286,82.33333 55.229,82.48062 55.8381,82.77519 C56.4471,83.0534 56.9169,83.44617 57.2475,83.95349 C57.5955,84.4608 57.8304,85.0581 57.9522,85.7455 C58.074,86.4328 58.1349,87.1774 58.1349,87.9793 L58.1349,94.5581 L54.2198,94.5581 L54.2198,88.7158 C54.2198,88.3721 54.2024,88.0202 54.1676,87.6602 C54.1502,87.2838 54.0719,86.9401 53.9327,86.6292 C53.8109,86.3183 53.6108,86.0646 53.3324,85.8682 C53.0714,85.6718 52.6885,85.5736 52.1839,85.5736 C51.6793,85.5736 51.2704,85.6637 50.9572,85.8437 C50.644,86.0073 50.4004,86.2364 50.2263,86.531 C50.0697,86.8092 49.9653,87.1283 49.9131,87.4884 C49.8609,87.8484 49.8348,88.2248 49.8348,88.6176 L49.8348,94.5581 L45.9197,94.5581 L45.9197,82.62791 Z" id="Path" fill="#FCFCFC" fill-rule="nonzero"></path>
            <path d="M73.6968,94.5581 L70.0949,94.5581 L70.0949,92.9871 L70.0427,92.9871 C69.8861,93.1998 69.6773,93.4208 69.4163,93.6499 C69.1727,93.8626 68.8769,94.059 68.5289,94.239 C68.1982,94.419 67.8241,94.5663 67.4065,94.6809 C67.0063,94.7954 66.5887,94.8527 66.1537,94.8527 C65.214,94.8527 64.3614,94.7054 63.5958,94.4109 C62.8301,94.0999 62.1689,93.6744 61.6121,93.1344 C61.0727,92.578 60.6551,91.9233 60.3592,91.1705 C60.0634,90.4177 59.9155,89.5913 59.9155,88.6912 C59.9155,87.8566 60.046,87.0629 60.307,86.3101 C60.5855,85.5409 60.9683,84.8618 61.4555,84.2726 C61.9601,83.68346 62.5691,83.21705 63.2826,82.87339 C63.996,82.51335 64.8051,82.33333 65.7099,82.33333 C66.5278,82.33333 67.2847,82.45607 67.9807,82.70155 C68.6942,82.93066 69.2771,83.33161 69.7295,83.90439 L69.7817,83.90439 L69.7817,76 L73.6968,76 L73.6968,94.5581 Z M70.0949,88.593 C70.0949,87.6929 69.8165,86.9647 69.2597,86.4083 C68.7203,85.8519 67.9546,85.5736 66.9628,85.5736 C65.971,85.5736 65.1966,85.8519 64.6398,86.4083 C64.1004,86.9647 63.8307,87.6929 63.8307,88.593 C63.8307,89.4931 64.1004,90.2214 64.6398,90.7778 C65.1966,91.3342 65.971,91.6124 66.9628,91.6124 C67.9546,91.6124 68.7203,91.3342 69.2597,90.7778 C69.8165,90.2214 70.0949,89.4931 70.0949,88.593 Z" id="Shape" fill="#FCFCFC" fill-rule="nonzero"></path>
            <path d="M84.2647,93.0607 L84.2125,93.0607 C83.7775,93.699 83.1945,94.1572 82.4637,94.4354 C81.7503,94.7136 80.9934,94.8527 80.1929,94.8527 C79.6013,94.8527 79.0271,94.7709 78.4703,94.6072 C77.9308,94.4599 77.4523,94.2308 77.0347,93.9199 C76.6171,93.609 76.2865,93.2244 76.0429,92.7661 C75.7993,92.3079 75.6775,91.7761 75.6775,91.1705 C75.6775,90.4832 75.808,89.9022 76.069,89.4276 C76.3474,88.9531 76.7128,88.5603 77.1652,88.2494 C77.635,87.9384 78.1658,87.7011 78.7574,87.5375 C79.349,87.3574 79.958,87.2265 80.5844,87.1447 C81.2283,87.0629 81.8634,87.0138 82.4898,86.9974 C83.1336,86.9811 83.7253,86.9729 84.2647,86.9729 C84.2647,86.3183 84.0124,85.8028 83.5078,85.4264 C83.0205,85.0336 82.4376,84.8372 81.759,84.8372 C81.1152,84.8372 80.5235,84.9681 79.9841,85.23 C79.4621,85.4755 78.9923,85.8191 78.5747,86.261 L76.4866,84.2481 C77.2174,83.60982 78.07,83.13523 79.0445,82.82429 C80.0189,82.49699 81.0282,82.33333 82.0722,82.33333 C83.2206,82.33333 84.1603,82.47244 84.8911,82.75065 C85.6393,83.01249 86.231,83.40525 86.666,83.92894 C87.1184,84.4526 87.4316,85.0991 87.6056,85.8682 C87.7796,86.621 87.8666,87.4966 87.8666,88.4948 L87.8666,94.5581 L84.2647,94.5581 L84.2647,93.0607 Z M83.2989,89.3295 C83.0031,89.3295 82.629,89.3458 82.1766,89.3786 C81.7416,89.3949 81.3153,89.4604 80.8977,89.5749 C80.4974,89.6895 80.1494,89.8613 79.8536,90.0904 C79.5752,90.3196 79.436,90.6387 79.436,91.0478 C79.436,91.4897 79.6361,91.817 80.0363,92.0297 C80.4365,92.2425 80.8542,92.3488 81.2892,92.3488 C81.672,92.3488 82.0374,92.2997 82.3854,92.2015 C82.7508,92.1034 83.0727,91.9643 83.3512,91.7842 C83.6296,91.6042 83.8471,91.3751 84.0037,91.0969 C84.1777,90.8187 84.2647,90.4914 84.2647,90.115 L84.2647,89.3295 L83.2989,89.3295 Z" id="Shape" fill="#FCFCFC" fill-rule="nonzero"></path>
            <path d="M99.4322,81.42506 C99.1016,81.0323 98.6492,80.74591 98.075,80.56589 C97.5181,80.36951 96.9874,80.27132 96.4828,80.27132 C96.187,80.27132 95.8825,80.30405 95.5693,80.36951 C95.2561,80.43497 94.9602,80.54134 94.6818,80.68863 C94.4034,80.81955 94.1772,80.99957 94.0032,81.22868 C93.8292,81.45779 93.7422,81.736 93.7422,82.06331 C93.7422,82.58699 93.951,82.98794 94.3686,83.26615 C94.7862,83.54436 95.3083,83.78165 95.9347,83.97804 C96.5785,84.1744 97.2658,84.3708 97.9967,84.5672 C98.7275,84.7636 99.4061,85.0418 100.0325,85.4018 C100.6764,85.7618 101.2071,86.2446 101.6247,86.8501 C102.0423,87.4556 102.2511,88.2657 102.2511,89.2804 C102.2511,90.2459 102.0597,91.0887 101.6769,91.8088 C101.2941,92.5289 100.7721,93.1262 100.1108,93.6008 C99.467,94.0754 98.7101,94.4272 97.84,94.6563 C96.9874,94.8854 96.0826,95 95.1255,95 C93.9249,95 92.8113,94.8282 91.7846,94.4845 C90.758,94.1408 89.8009,93.5844 88.9135,92.8152 L91.8107,89.8204 C92.2283,90.3441 92.7504,90.7532 93.3768,91.0478 C94.0206,91.326 94.6818,91.4651 95.3605,91.4651 C95.6911,91.4651 96.0217,91.4324 96.3523,91.3669 C96.7003,91.2851 97.0048,91.1705 97.2658,91.0233 C97.5442,90.876 97.7617,90.6878 97.9184,90.4587 C98.0924,90.2295 98.1794,89.9595 98.1794,89.6486 C98.1794,89.1249 97.9619,88.7158 97.5268,88.4212 C97.1092,88.1102 96.5785,87.8484 95.9347,87.6357 C95.2909,87.4229 94.5948,87.2102 93.8466,86.9974 C93.0984,86.7847 92.4023,86.4983 91.7585,86.1382 C91.1147,85.7782 90.5753,85.3036 90.1403,84.7145 C89.7226,84.1253 89.5138,83.34798 89.5138,82.38243 C89.5138,81.44961 89.7052,80.63135 90.0881,79.92765 C90.4883,79.22394 91.0103,78.6348 91.6541,78.16021 C92.3153,77.68562 93.0723,77.33376 93.9249,77.10465 C94.7775,76.85917 95.6563,76.73643 96.5611,76.73643 C97.6051,76.73643 98.6144,76.87554 99.5888,77.15375 C100.5633,77.43196 101.442,77.89836 102.225,78.55297 L99.4322,81.42506 Z" id="Path" fill="#FCFCFC" fill-rule="nonzero"></path>
            <path d="M112.8538,86.4819 C112.6624,86.2201 112.3927,86.0073 112.0447,85.8437 C111.6967,85.6637 111.3226,85.5736 110.9224,85.5736 C109.9305,85.5736 109.1562,85.8519 108.5994,86.4083 C108.0599,86.9647 107.7902,87.6929 107.7902,88.593 C107.7902,89.4931 108.0599,90.2214 108.5994,90.7778 C109.1562,91.3342 109.9305,91.6124 110.9224,91.6124 C111.3574,91.6124 111.7315,91.5224 112.0447,91.3424 C112.3579,91.1624 112.6276,90.9496 112.8538,90.7041 L115.4378,93.2571 C114.8288,93.8463 114.1067,94.2636 113.2714,94.509 C112.4536,94.7382 111.6706,94.8527 110.9224,94.8527 C109.9479,94.8527 109.0257,94.7054 108.1557,94.4109 C107.303,94.1163 106.5548,93.699 105.911,93.1589 C105.2845,92.6025 104.7886,91.9397 104.4232,91.1705 C104.0578,90.4014 103.8751,89.5422 103.8751,88.593 C103.8751,87.6438 104.0578,86.7847 104.4232,86.0155 C104.7886,85.2463 105.2845,84.5917 105.911,84.0517 C106.5548,83.49526 107.303,83.06977 108.1557,82.77519 C109.0257,82.48062 109.9479,82.33333 110.9224,82.33333 C111.6706,82.33333 112.4536,82.45607 113.2714,82.70155 C114.1067,82.93066 114.8288,83.33979 115.4378,83.92894 L112.8538,86.4819 Z" id="Path" fill="#FCFCFC" fill-rule="nonzero"></path>
            <path d="M115.8664,88.593 C115.8664,87.6438 116.0492,86.7847 116.4146,86.0155 C116.78,85.2463 117.276,84.5917 117.902,84.0517 C118.546,83.49526 119.294,83.06977 120.147,82.77519 C121.017,82.48062 121.939,82.33333 122.914,82.33333 C123.888,82.33333 124.802,82.48062 125.654,82.77519 C126.524,83.06977 127.273,83.49526 127.899,84.0517 C128.543,84.5917 129.047,85.2463 129.413,86.0155 C129.778,86.7847 129.961,87.6438 129.961,88.593 C129.961,89.5422 129.778,90.4014 129.413,91.1705 C129.047,91.9397 128.543,92.6025 127.899,93.1589 C127.273,93.699 126.524,94.1163 125.654,94.4109 C124.802,94.7054 123.888,94.8527 122.914,94.8527 C121.939,94.8527 121.017,94.7054 120.147,94.4109 C119.294,94.1163 118.546,93.699 117.902,93.1589 C117.276,92.6025 116.78,91.9397 116.4146,91.1705 C116.0492,90.4014 115.8664,89.5422 115.8664,88.593 Z M119.782,88.593 C119.782,89.4931 120.051,90.2214 120.591,90.7778 C121.148,91.3342 121.922,91.6124 122.914,91.6124 C123.906,91.6124 124.671,91.3342 125.211,90.7778 C125.767,90.2214 126.046,89.4931 126.046,88.593 C126.046,87.6929 125.767,86.9647 125.211,86.4083 C124.671,85.8519 123.906,85.5736 122.914,85.5736 C121.922,85.5736 121.148,85.8519 120.591,86.4083 C120.051,86.9647 119.782,87.6929 119.782,88.593 Z" id="Shape" fill="#FCFCFC" fill-rule="nonzero"></path>
            <path d="M131.745,82.62791 L135.66,82.62791 L135.66,84.5426 L135.712,84.5426 C136.13,83.8062 136.626,83.25797 137.2,82.89793 C137.774,82.52153 138.496,82.33333 139.367,82.33333 C139.593,82.33333 139.819,82.34152 140.045,82.35788 C140.271,82.37425 140.48,82.40698 140.672,82.45607 L140.672,85.8191 C140.393,85.7373 140.115,85.68 139.836,85.6473 C139.575,85.5982 139.297,85.5736 139.001,85.5736 C138.253,85.5736 137.661,85.6718 137.226,85.8682 C136.791,86.0646 136.452,86.3428 136.208,86.7028 C135.982,87.0465 135.834,87.4638 135.765,87.9548 C135.695,88.4457 135.66,88.9858 135.66,89.5749 L135.66,94.5581 L131.745,94.5581 L131.745,82.62791 Z" id="Path" fill="#FCFCFC" fill-rule="nonzero"></path>
            <path d="M153.4,92.4961 C152.773,93.2489 151.982,93.8299 151.024,94.239 C150.067,94.6481 149.076,94.8527 148.049,94.8527 C147.075,94.8527 146.152,94.7054 145.282,94.4109 C144.43,94.1163 143.681,93.699 143.038,93.1589 C142.411,92.6025 141.915,91.9397 141.55,91.1705 C141.184,90.4014 141.002,89.5422 141.002,88.593 C141.002,87.6438 141.184,86.7847 141.55,86.0155 C141.915,85.2463 142.411,84.5917 143.038,84.0517 C143.681,83.49526 144.43,83.06977 145.282,82.77519 C146.152,82.48062 147.075,82.33333 148.049,82.33333 C148.954,82.33333 149.772,82.48062 150.502,82.77519 C151.251,83.06977 151.877,83.49526 152.382,84.0517 C152.904,84.5917 153.304,85.2463 153.582,86.0155 C153.861,86.7847 154,87.6438 154,88.593 L154,89.7468 L144.917,89.7468 C145.073,90.4505 145.413,91.0151 145.935,91.4406 C146.457,91.8497 147.101,92.0543 147.866,92.0543 C148.51,92.0543 149.05,91.9233 149.485,91.6615 C149.937,91.3833 150.328,91.0314 150.659,90.6059 L153.4,92.4961 Z M150.085,87.2429 C150.102,86.621 149.885,86.0891 149.432,85.6473 C148.98,85.2054 148.397,84.9845 147.684,84.9845 C147.249,84.9845 146.866,85.05 146.535,85.1809 C146.204,85.3118 145.917,85.4836 145.674,85.6964 C145.448,85.8928 145.265,86.1301 145.126,86.4083 C145.004,86.6701 144.934,86.9483 144.917,87.2429 L150.085,87.2429 Z" id="Shape" fill="#FCFCFC" fill-rule="nonzero"></path>
        </g>
    </g>
</svg>