<?xml version="1.0" encoding="UTF-8"?>
<svg width="44px" height="32px" viewBox="0 0 44 32" version="1.1" xmlns="http://www.w3.org/2000/svg" xmlns:xlink="http://www.w3.org/1999/xlink">
    <title>sumsub</title>
    <g id="Page-1" stroke="none" stroke-width="1" fill="none" fill-rule="evenodd">
        <g id="sumsub">
            <path d="M5.81814,19.8807 C5.81814,20.1521 6.03837,20.3722 6.30994,20.3722 L11.1445,20.3722 C11.4161,20.3722 11.6363,20.1521 11.6363,19.8807 L11.6363,17.4652 L14.0536,17.4652 C14.3251,17.4652 14.5454,17.2451 14.5454,16.9737 L14.5454,15.0496 C14.5454,14.7782 14.3251,14.5582 14.0536,14.5582 L6.30994,14.5582 C6.03837,14.5582 5.81814,14.7782 5.81814,15.0496 L5.81814,19.8807 Z M5.81814,9.21898 C5.81814,8.9476 5.59792,8.72754 5.32635,8.72754 L0.491792,8.72754 C0.220223,8.72754 0,8.9476 0,9.21898 L0,14.0501 C0,14.3215 0.220223,14.5415 0.491792,14.5415 L2.41728,14.5415 C2.68885,14.5415 2.90907,14.3215 2.90907,14.0501 L2.90907,11.6345 L5.32635,11.6345 C5.59792,11.6345 5.81814,11.4145 5.81814,11.1431 L5.81814,9.21898 Z M8.72722,26.6609 C8.72722,26.3895 8.50699,26.1695 8.23542,26.1695 L6.30994,26.1695 C6.03837,26.1695 5.81814,26.3895 5.81814,26.6609 L5.81814,28.585 C5.81814,28.8564 6.03837,29.0765 6.30994,29.0765 L8.23542,29.0765 C8.50699,29.0765 8.72722,28.8564 8.72722,28.585 L8.72722,26.6609 Z M43.1443,8.72754 L38.3097,8.72754 C38.0382,8.72754 37.8179,8.9476 37.8179,9.21898 L37.8179,11.1431 C37.8179,11.4145 38.0382,11.6345 38.3097,11.6345 L40.727,11.6345 L40.727,14.0501 C40.727,14.3215 40.9472,14.5415 41.2188,14.5415 L43.1443,14.5415 C43.4159,14.5415 43.6361,14.3215 43.6361,14.0501 L43.6361,9.21898 C43.6361,8.9476 43.4159,8.72754 43.1443,8.72754 Z M37.3261,14.5415 L29.5825,14.5415 C29.3109,14.5415 29.0907,14.7616 29.0907,15.033 L29.0907,16.9571 C29.0907,17.2284 29.3109,17.4485 29.5825,17.4485 L31.9998,17.4485 L31.9998,19.8641 C31.9998,20.1354 32.22,20.3555 32.4916,20.3555 L37.3261,20.3555 C37.5977,20.3555 37.8179,20.1354 37.8179,19.8641 L37.8179,15.033 C37.8179,14.7616 37.5977,14.5415 37.3261,14.5415 Z M34.4171,29.0931 L31.9998,29.0931 L31.9998,26.6776 C31.9998,26.4062 31.7796,26.1861 31.508,26.1861 L29.0907,26.1861 L29.0907,20.8636 C29.0907,20.5922 28.8705,20.3722 28.5989,20.3722 L26.1817,20.3722 L26.1817,15.0496 C26.1817,14.7782 25.9614,14.5582 25.6899,14.5582 L17.9462,14.5582 C17.6747,14.5582 17.4544,14.7782 17.4544,15.0496 L17.4544,20.3722 L15.0372,20.3722 C14.7655,20.3722 14.5454,20.5922 14.5454,20.8636 L14.5454,26.1861 L12.1281,26.1861 C11.8565,26.1861 11.6363,26.4062 11.6363,26.6776 L11.6363,29.0931 L9.21901,29.0931 C8.94744,29.0931 8.72722,29.3132 8.72722,29.5846 L8.72722,31.5087 C8.72722,31.7801 8.94744,32.0001 9.21901,32.0001 L14.0536,32.0001 C14.3251,32.0001 14.5454,31.7801 14.5454,31.5087 L14.5454,29.0931 L16.9626,29.0931 C17.2342,29.0931 17.4544,28.8731 17.4544,28.6017 L17.4544,23.2791 L26.1817,23.2791 L26.1817,28.6017 C26.1817,28.8731 26.4019,29.0931 26.6734,29.0931 L29.0907,29.0931 L29.0907,31.5087 C29.0907,31.7801 29.3109,32.0001 29.5825,32.0001 L34.4171,32.0001 C34.6886,32.0001 34.9089,31.7801 34.9089,31.5087 L34.9089,29.5846 C34.9089,29.3132 34.6886,29.0931 34.4171,29.0931 Z M37.3261,26.1695 L35.4007,26.1695 C35.1291,26.1695 34.9089,26.3895 34.9089,26.6609 L34.9089,28.585 C34.9089,28.8564 35.1291,29.0765 35.4007,29.0765 L37.3261,29.0765 C37.5977,29.0765 37.8179,28.8564 37.8179,28.585 L37.8179,26.6609 C37.8179,26.3895 37.5977,26.1695 37.3261,26.1695 Z" id="Shape" fill="#0A0C0E"></path>
            <path d="M12.1275,8.72722 L31.5075,8.72722 C31.779,8.72722 31.9992,8.507 31.9992,8.23543 L31.9992,6.30994 C31.9992,6.03828 31.779,5.81815 31.5075,5.81815 L29.0902,5.81815 L29.0902,3.40086 C29.0902,3.1293 28.87,2.90907 28.5984,2.90907 L26.1811,2.90907 L26.1811,0.491792 C26.1811,0.220223 25.9609,0 25.6893,0 L17.9457,0 C17.6741,0 17.4539,0.220223 17.4539,0.491792 L17.4539,2.90907 L15.0366,2.90907 C14.765,2.90907 14.5448,3.1293 14.5448,3.40086 L14.5448,5.81815 L12.1275,5.81815 C11.856,5.81815 11.6357,6.03828 11.6357,6.30994 L11.6357,8.23543 C11.6357,8.507 11.856,8.72722 12.1275,8.72722 Z" id="Path" fill="#1BEDBA"></path>
        </g>
    </g>
</svg>