<svg xmlns="http://www.w3.org/2000/svg" fill="none" viewBox="0 0 18 18">
  <path fill="#0AA1DD" d="M15.446 13.715a8 8 0 0 0 1.327-2.86 6.2 6.2 0 0 0-2.567 1.02c.44.594.854 1.213 1.24 1.84M11.52 16.58a8.05 8.05 0 0 0 3.006-1.812 24 24 0 0 0-1.333-2.02 6.17 6.17 0 0 0-1.667 3.832zM12.973 3.76c0 1.839-.6 3.538-1.613 4.925a25 25 0 0 1 2.013 2.152 7.5 7.5 0 0 1 3.6-1.34c.013-.166.027-.326.027-.5a8 8 0 0 0-4.227-7.05c.127.587.2 1.193.2 1.813m-9.72-.313a25.6 25.6 0 0 1 7.12 4.338 6.97 6.97 0 0 0 .82-6.47C10.493 1.113 9.76 1 9 1c-2.26 0-4.294.94-5.747 2.446m1.333 8.703a8.4 8.4 0 0 1-3.173-.627C2.473 14.701 5.466 17 9 17c.4 0 .786-.04 1.173-.093a7.53 7.53 0 0 1 2.187-5.212q-.872-1.048-1.854-1.985a8.35 8.35 0 0 1-5.913 2.445z" />
  <path fill="#0AA1DD" d="M9.514 8.803a24.3 24.3 0 0 0-7.14-4.278A7.92 7.92 0 0 0 1.047 9.85a7.025 7.025 0 0 0 8.467-1.053z" />
</svg>
