<svg xmlns="http://www.w3.org/2000/svg" fill="none" viewBox="0 0 18 18">
  <path fill="#1FA85C" d="M12.935 5.073a5.66 5.66 0 0 0-2.414-1.414l-.047-.012a6.7 6.7 0 0 1-2.819-1.72l-.667-.667-.056.012a8 8 0 0 1 2.071-.27c2.204 0 4.199.89 5.645 2.331h.001A8 8 0 1 1 1 8.998c0-.713.093-1.404.255-2.005l.687.666v.001a6.4 6.4 0 0 1 1.673 2.813l.01.039a5.55 5.55 0 0 0 2.223 3.095l.148.094a5.58 5.58 0 0 0 6.939-8.628m-6.24-2.16a7.9 7.9 0 0 0 3.447 2l.03.008a4.26 4.26 0 0 1 3.023 4.478l-.001.02a4.3 4.3 0 0 1-1.886 3.12l.015-.008a4.2 4.2 0 0 1-2.356.715c-1.944 0-3.582-1.311-4.086-3.126l-.013-.055A7.74 7.74 0 0 0 2.881 6.72L1.755 5.593h.001l.02-.047A7.86 7.86 0 0 1 5.589 1.76z" />
</svg>
