<svg xmlns="http://www.w3.org/2000/svg" xml:space="preserve" viewBox="20 40 1095 1053"><path d="M6203 8099H2310s-635-20-824-656C1297 6808 367 3991 367 3991S7 3333 664 2844 3769 583 3769 583s183-155 487-155 488 155 488 155 2448 1772 3105 2261 297 1147 297 1147-931 2817-1119 3452c-189 636-824 656-824 656" data-source="https://football-logos.cc" style="fill:#dc0c24;fill-opacity:1;fill-rule:evenodd;stroke:none" transform="matrix(.13333 0 0 -.13333 0 1135)"/><path d="M3552 3693a705 705 0 0 0 1410 0h2991c24-129 9-263-50-377-79-152-224-251-363-353-907-669-1817-1325-2730-1987l-238-172-5-4-20-14a576 576 0 0 0-553-16c-27 14-54 34-54 34l-35 26-79 57c-990 716-1981 1429-2963 2158a867 867 0 0 0-238 242 585 585 0 0 0-64 406z" style="fill:#fff;fill-opacity:1;fill-rule:evenodd;stroke:none" transform="matrix(.13333 0 0 -.13333 0 1135)"/><path d="M3295 1682h1918" style="fill:none;stroke:#000;stroke-width:70;stroke-linecap:round;stroke-linejoin:round;stroke-miterlimit:10;stroke-dasharray:none;stroke-opacity:1" transform="matrix(.13333 0 0 -.13333 0 1135)"/><path d="M2825 2991q-18-2-20-18l-28-152c-25 4-55 6-73 6-157 0-239-63-266-225l-12-68q-4-24-4-46c0-104 68-179 188-179 70 0 142 10 196 23 25 5 29 11 32 25l112 616q3 20-17 18zm-69-286-49-274q-28-5-75-5c-50 0-66 21-66 61q0 20 5 47l11 68c13 73 36 108 101 108 22 0 52-2 73-5m557 115h-110q-17-2-20-17l-85-469q-2-16 14-17h110c16 0 20 8 22 17l84 469q1 18-15 17m733-12q-1 11-13 12h-123q-15-1-23-18l-139-345q-9-19-17-18-11 0-11 18l-15 345q-2 17-16 18h-114q-15-1-17-18v-2l40-399c9-78 60-92 113-92s111 14 147 92l186 399zm359 12h-110q-16-2-21-17l-84-469q-3-16 14-17h110q21 2 21 17l85 469q2 18-15 17m621-29q0 13-14 16c-44 12-93 20-156 20-108 0-211-35-211-158 0-38 18-79 58-104l106-66q29-19 27-35c0-37-29-40-60-40-39 0-103 6-151 12h-3q-16-1-20-16l-14-72v-4q0-12 14-16c44-12 110-19 160-19 116 0 222 45 222 172 0 34-15 74-71 109l-100 63q-21 11-21 27c0 30 26 31 49 31h4c46 0 122-8 147-12h3q15 1 18 17l13 71zm396 29h-109q-17-2-21-17l-85-469q-1-16 15-17h110c15 0 19 8 21 17l85 469c2 12-6 17-16 17m683-176c0 103-64 183-186 183-147 0-242-78-269-231l-11-61q-3-27-4-49c0-123 92-177 189-177 78 0 128 7 189 21 16 3 20 10 22 24l13 66c2 13-3 15-17 15-37-3-118-8-175-8s-80 15-80 61q0 17 4 36h289q17 1 22 21l9 51q5 25 5 48m-136 7q0-18-5-39h-169c13 61 42 101 103 101 51 0 71-22 71-62" data-source="https://football-logos.cc" style="fill:#dc0c24;fill-opacity:1;fill-rule:nonzero;stroke:none" transform="matrix(.13333 0 0 -.13333 0 1135)"/><path d="M3830 3906s-42-47-52-137 15-169 15-169 16-76 37-124 70-101 121-106c0 0-60 73-49 153 0 0-66 31-97 104 0 0-35 128 18 210 0 0-3 32 7 69m203-93-101 106s31 111 101 159 196 31 196 31 37 49 102 46 180-85 180-85v-53l-15-33s-67 17-165 21c0 0-67-64-110-156 0 0 66-94 103-185 0 0-50-85-126-155 0 0-119 45-186 94 0 0-9 112 21 210m113-536s75 37 110 69c0 0 45-14 99-14s96 14 96 14 78 50 122 135c0 0 4 85-41 164 0 0 59 83 75 154 0 0 57-9 100-68 0 0 14-105-25-187 0 0-12-90-75-169s-156-106-156-106-76-51-178-51-127 59-127 59" style="fill:#000;fill-opacity:1;fill-rule:evenodd;stroke:none" transform="matrix(.13333 0 0 -.13333 0 1135)"/><path d="M4395 3872s21 39 32 80c0 0 20-33 38-90 0 0 71-33 92-47 0 0-43-19-81-24 0 0-22-60-38-92 0 0-21 65-34 92 0 0-21 19-98 52 0 0 36 17 89 29" style="fill:#979797;fill-opacity:1;fill-rule:evenodd;stroke:none" transform="matrix(.13333 0 0 -.13333 0 1135)"/><path d="M2210 6103h196v299l74 96 216-395h231l-305 526 290 390h-244l-198-304q-32-49-61-101h-3v405h-196zm1331 266c3 15 7 46 7 82 0 164-78 332-284 332-221 0-321-187-321-355 0-208 124-339 340-339 85 0 165 14 230 42l-26 140c-54-19-108-28-176-28-92 0-174 41-179 126zm-411 142c6 54 39 134 123 134 91 0 111-84 111-134zm1136 257h-198v-396q0-27-8-45c-11-33-44-72-98-72-71 0-101 58-101 155v358h-197v-391c0-205 93-289 223-289 115 0 175 68 199 108h4l10-93h171q-4 83-5 213zm357 300h-198v-965h198v208l49 65 155-273h243l-260 395 228 270h-239l-128-200a902 902 0 0 1-46-80h-2zm1050-699c3 15 7 46 7 82 0 164-78 332-284 332-221 0-321-187-321-355 0-208 123-339 339-339q131 0 230 42l-26 140c-53-19-108-28-175-28-93 0-174 41-180 126zm-411 142c5 54 39 134 122 134 91 0 112-84 112-134zm536-408h198v383q-1 30 6 52c15 38 47 77 102 77 71 0 100-58 100-144v-368h198v393c0 196-98 287-228 287-107 0-170-64-196-108h-4l-9 93h-172q4-89 5-212zM1412 5031h197v299l74 97 216-396h230l-304 526 290 391h-245l-198-305q-31-48-61-101h-2v406h-197zm1322 393c0 158-66 288-278 288-116 0-203-34-248-60l37-133c41 27 110 51 175 51 98 0 116-51 116-88v-8c-225 0-373-81-373-254 0-106 77-204 205-204 76 0 141 28 183 82h3l12-67h178c-7 37-10 98-10 160zm-191-151q0-18-4-35c-13-43-55-77-103-77-44 0-78 26-78 79 0 79 81 105 185 105zm348-242h193v388q-1 26 8 53c12 32 41 73 92 73 64 0 93-57 93-140v-374h192v389q1 29 7 53c14 39 45 72 92 72 64 0 94-56 94-152v-362h192v392c0 200-92 289-214 289q-69-1-121-32-47-29-84-82h-2c-28 69-91 114-175 114-108 0-165-62-192-106h-4l-8 90h-168q5-89 5-212zm1119-269h198v330h3c28-43 88-76 165-76 142 0 289 114 289 356 0 212-125 339-264 339q-141-2-212-107h-3l-9 92h-172q5-93 5-223zm198 646q0 19 4 36c13 62 63 105 118 105 89 0 134-80 134-186 0-113-50-188-136-188-57 0-103 42-116 98q-4 20-4 44zm778-377v665h-198v-665zm-97 953c-64 0-106-45-106-103 0-57 41-103 103-103 66 0 107 46 107 103-2 58-41 103-104 103m560-272c-205 0-340-137-340-353 0-215 143-343 329-343 170 0 335 111 335 355 0 201-130 341-324 341m-6-148c90 0 126-101 126-199 0-121-48-201-126-201-85 0-130 86-130 200 0 98 36 200 130 200m1019-267c2 15 6 47 6 82 0 165-78 332-283 332-222 0-322-186-322-355 0-208 124-339 340-339q131 0 230 42l-26 141c-53-19-108-29-176-29-92 0-174 41-179 126zm-411 142c5 54 39 135 122 135 91 0 112-85 112-135zm536-408h197v383q0 31 7 52c14 38 47 78 101 78 72 0 101-59 101-145v-368h197v393c0 196-97 287-227 287-107 0-171-64-197-107h-4l-9 92h-172q5-89 6-212z" data-source="https://football-logos.cc" style="fill:#fff;fill-opacity:1;fill-rule:nonzero;stroke:none" transform="matrix(.13333 0 0 -.13333 0 1135)"/></svg>