<?xml version="1.0" encoding="UTF-8" standalone="no"?>
<svg xmlns="http://www.w3.org/2000/svg" viewBox="48 110 525 312">
<g transform="translate(0.000000,600.000000) scale(0.100000,-0.100000)" stroke="none">
<path fill="#414141" d="M1283 4866 c-140 -44 -224 -146 -253 -308 -10 -57 -16 -68 -32 -68 -74 0 -171 -57 -204 -121 -8 -16 -76 -316 -150 -667 -99 -466 -134 -647 -129 -675 11 -75 69 -154 125 -172 11 -3 20 -14 20 -23 0 -9 -36 -186 -80 -393 -44 -207 -80 -400 -80 -429 0 -72 31 -134 83 -168 l41 -27 2110 -3 c2344 -2 2165 -8 2274 64 47 31 59 35 93 29 84 -14 195 40 233 114 8 15 75 316 150 669 106 498 135 652 130 683 -9 55 -60 129 -106 154 -21 11 -38 25 -38 31 0 6 52 255 116 554 84 399 114 554 109 579 -14 73 -55 129 -120 164 l-40 22 -2105 2 c-1721 1 -2113 -1 -2147 -11z m737 -170 c0 -2 -7 -38 -16 -81 -9 -42 -14 -78 -12 -79 1 -2 234 -52 515 -111 l513 -108 22 29 c70 89 127 119 228 119 139 0 232 -68 271 -197 12 -38 24 -68 27 -68 3 0 230 -48 505 -106 275 -58 505 -103 512 -100 7 2 19 36 26 75 11 64 14 71 36 71 12 0 23 -4 23 -8 0 -4 -31 -156 -70 -337 -38 -182 -70 -333 -70 -337 0 -10 -37 -10 -44 0 -2 4 9 72 26 150 17 78 29 144 26 147 -3 4 -892 195 -904 195 -1 0 16 -60 38 -132 62 -208 102 -284 176 -333 36 -23 159 -61 169 -52 2 3 10 30 17 60 l13 56 -39 6 c-22 4 -42 14 -45 21 -8 22 17 132 32 138 18 7 338 -63 346 -75 7 -11 -14 -126 -25 -136 -4 -4 -41 -1 -82 6 -42 7 -77 11 -78 9 -5 -6 -24 -113 -21 -116 4 -4 495 -129 495 -126 0 1 11 56 25 121 16 73 35 132 50 154 25 39 95 79 137 79 41 0 548 -110 605 -132 59 -22 97 -61 114 -118 11 -36 1 -91 -115 -642 -70 -332 -134 -626 -142 -654 -17 -63 -74 -119 -130 -130 -62 -11 -635 111 -685 147 -37 26 -68 90 -69 141 l0 36 -352 86 -352 86 -41 -45 c-32 -34 -49 -45 -71 -45 -49 0 -1357 280 -1381 296 -14 8 -29 36 -38 69 -9 30 -19 55 -23 55 -4 0 -160 27 -347 60 -187 33 -346 60 -353 60 -7 0 -15 -8 -19 -17 -11 -33 -54 -83 -83 -98 -16 -8 -50 -15 -76 -15 -75 0 -612 117 -645 141 -40 29 -67 70 -74 115 -8 50 244 1258 275 1319 11 22 37 51 57 65 54 37 132 32 418 -29 280 -60 296 -65 336 -98 65 -55 72 -107 37 -270 -12 -57 -19 -106 -15 -109 9 -9 497 -92 501 -85 2 3 6 24 10 46 4 22 9 47 12 56 3 13 -9 19 -58 29 -91 19 -101 25 -93 63 19 93 25 107 48 107 31 -1 326 -65 334 -73 3 -4 0 -37 -8 -74 l-14 -68 -47 2 c-45 3 -48 1 -54 -25 -3 -15 -10 -41 -14 -59 l-8 -31 79 -11 c157 -23 228 20 426 260 l61 75 -451 96 c-310 65 -454 92 -458 84 -4 -6 -19 -73 -34 -149 -26 -127 -30 -138 -49 -135 -27 4 -29 -9 51 371 64 305 68 317 90 317 13 0 23 -2 23 -4z"/>
<path fill="#414141" d="M3225 4356 c-36 -16 -71 -53 -61 -64 9 -8 259 -62 264 -57 11 11 -40 96 -66 109 -44 23 -102 28 -137 12z"/>
<path fill="#414141" d="M1475 3029 c-4 -22 -5 -42 -3 -43 9 -7 661 -116 666 -111 3 3 1 10 -5 16 -8 8 -622 179 -645 179 -3 0 -9 -18 -13 -41z"/>
<path fill="#414141" d="M3785 2539 c-4 -6 -5 -12 -2 -15 8 -8 650 -165 654 -160 3 2 8 21 13 41 6 25 5 38 -3 40 -7 2 -147 25 -312 50 -165 25 -310 47 -322 50 -12 3 -25 0 -28 -6z"/>
<path fill="#414141" d="M5184 1835 c-2 -32 8 -32 23 0 9 21 9 25 -5 25 -11 0 -18 -9 -18 -25z"/>
<path fill="#414141" d="M5237 1853 c-4 -3 -7 -15 -7 -26 0 -16 3 -17 15 -7 12 10 15 10 15 0 0 -10 3 -10 15 0 12 10 15 10 15 -1 0 -11 2 -11 10 1 14 22 12 40 -4 40 -8 0 -17 -6 -20 -12 -5 -10 -7 -10 -12 0 -6 13 -17 16 -27 5z"/>
<path fill="#E51937" d="M1300 4826 c-92 -24 -174 -97 -203 -177 -23 -64 -51 -195 -45 -211 4 -8 106 -34 279 -71 222 -47 279 -62 306 -83 69 -52 76 -103 42 -277 -12 -59 -20 -109 -18 -112 3 -2 120 -24 261 -48 l257 -44 14 66 c8 36 13 69 11 72 -2 4 -32 12 -67 19 -90 17 -89 16 -75 84 6 32 17 60 24 63 21 8 325 -59 331 -72 2 -7 -2 -37 -9 -66 l-13 -54 -47 3 -46 3 -11 -51 c-19 -88 -20 -86 67 -98 132 -19 205 11 318 131 66 68 172 197 176 211 3 8 -912 209 -919 202 -2 -2 -63 -285 -63 -293 0 -1 -7 -3 -15 -3 -8 0 -15 2 -15 3 0 4 97 465 126 595 11 51 20 72 31 72 11 0 14 -6 9 -23 -20 -79 -27 -130 -20 -136 5 -5 239 -56 520 -115 l511 -107 64 63 c49 49 75 67 112 78 99 27 237 -14 292 -86 16 -20 38 -66 50 -103 l22 -66 504 -107 c277 -59 512 -108 521 -108 18 0 21 7 38 93 8 37 16 57 26 57 8 0 14 -2 14 -5 0 -4 -125 -599 -135 -642 -3 -13 -12 -23 -21 -23 -10 0 -14 6 -10 18 13 46 59 282 55 286 -6 5 -921 197 -924 194 -8 -8 95 -321 120 -367 52 -94 122 -141 253 -167 27 -5 29 -4 40 46 19 82 17 87 -28 95 -32 5 -40 11 -40 28 1 32 17 98 27 108 10 10 319 -53 333 -67 9 -9 -8 -99 -23 -121 -5 -8 -21 -8 -65 3 -96 23 -93 25 -117 -92 l-6 -31 255 -64 c140 -35 257 -61 260 -58 3 3 16 58 30 122 14 65 34 133 46 152 22 36 90 75 131 75 13 0 147 -25 296 -57 150 -31 274 -55 277 -52 2 2 58 259 124 571 98 465 118 574 112 608 -13 71 -65 124 -136 140 -64 15 -4159 11 -4214 -4z"/>
<path fill="#E51937" d="M3235 4369 c-29 -8 -104 -74 -94 -83 6 -6 292 -66 296 -63 5 6 -16 69 -32 93 -29 44 -112 70 -170 53z"/>
</g>
</svg>