<svg viewBox="0 0 1280 691" fill="none" xmlns="http://www.w3.org/2000/svg">
<g transform="translate(0,691) scale(0.1,-0.1)">
<path fill="#FFFFFF" d="M885 6894 c-207 -34 -416 -140 -565 -285 -130 -126 -236 -309 -288
-494 l-27 -100 0 -2555 0 -2555 27 -96 c80 -291 268 -530 528 -672 90 -50 258
-103 365 -117 67 -8 1499 -10 5530 -8 l5440 3 100 27 c381 104 667 390 773
776 l27 97 0 2550 0 2550 -27 96 c-105 380 -387 662 -767 767 l-96 27 -5470 2
c-4562 1 -5483 -1 -5550 -13z"/>
<path fill="#041E42" d="M910 6514 c-94 -20 -234 -92 -307 -159 -80 -72 -149 -176 -187 -284
l-31 -86 -3 -2495 c-3 -2787 -8 -2566 68 -2718 96 -189 245 -308 454 -362 78
-20 104 -20 2278 -20 1209 0 2198 3 2198 8 0 4 -56 101 -124 217 l-123 210
-259 5 -259 5 3 135 c11 504 97 948 252 1301 152 345 397 600 658 684 29 9 57
25 62 35 29 55 -2 306 -50 400 l-20 40 -160 0 c-109 0 -161 4 -166 12 -18 29
4 92 116 332 66 141 120 267 120 279 0 12 -6 45 -13 72 l-13 50 -450 5 -449 5
365 256 365 255 7 55 c40 312 62 398 138 555 176 363 511 575 969 614 258 22
560 -28 826 -137 546 -223 790 -559 846 -1167 15 -165 8 -454 -12 -467 -8 -5
-37 -9 -66 -9 -50 0 -52 -1 -59 -33 -4 -17 -7 -86 -7 -152 0 -195 39 -284 133
-299 23 -3 288 -6 589 -6 516 1 553 0 649 -20 152 -31 316 -95 463 -182 l75
-45 46 166 c37 135 43 169 33 183 -6 10 -488 639 -1071 1398 l-1059 1380
-3380 -1 c-2848 0 -3390 -3 -3445 -15z m1013 -4209 c357 -93 483 -535 225
-793 -105 -105 -213 -147 -367 -140 -86 3 -105 7 -174 41 -246 116 -343 398
-223 642 99 201 326 306 539 250z"/>
<path fill="#BF0D3E" d="M9023 6092 c144 -242 528 -882 852 -1425 l590 -985 45 -6 c123 -17
114 -12 169 -88 47 -66 51 -75 51 -129 l0 -57 50 -7 c47 -6 52 -10 100 -75 47
-64 50 -71 50 -128 l0 -61 53 -7 c48 -6 57 -11 114 -73 l63 -66 0 -137 0 -138
76 -60 c111 -88 179 -133 301 -197 59 -31 119 -66 131 -77 36 -31 66 -89 122
-227 56 -139 104 -215 214 -338 42 -47 83 -100 92 -120 16 -33 16 -39 -5 -110
-30 -101 -114 -273 -191 -391 -82 -125 -233 -276 -315 -316 l-60 -29 -557 -3
-558 -2 0 -225 0 -225 690 0 c784 0 782 0 935 75 164 80 294 227 352 399 l28
81 3 2488 c3 2788 9 2559 -74 2725 -64 131 -165 232 -296 296 -162 81 -47 76
-1760 76 l-1527 0 262 -438z"/>
</g>
</svg>
