<svg fill="none" xmlns="http://www.w3.org/2000/svg" viewBox="0 0 644 338">
<g transform="translate(0,338) scale(0.100000,-0.100000)"
fill="#3D5A80" stroke="none">
<path d="M584 3019 c-29 -11 -72 -37 -96 -58 -85 -75 -83 -68 -263 -922 -92
-431 -177 -838 -191 -904 -13 -66 -27 -128 -30 -137 -5 -17 16 -18 355 -18
l360 0 10 38 c6 20 44 168 86 327 41 160 80 299 85 310 7 14 8 -2 5 -55 -3
-41 -10 -172 -15 -290 -6 -118 -13 -241 -16 -272 l-5 -58 274 0 274 0 126 287
c180 412 177 406 182 401 2 -2 -25 -154 -60 -338 -36 -184 -65 -338 -65 -343
0 -4 163 -6 362 -5 l362 3 183 865 c100 476 197 938 216 1028 l35 163 -387 -3
-386 -3 -57 -28 c-111 -54 -140 -99 -335 -512 -97 -203 -180 -374 -185 -380
-7 -7 -8 65 -4 210 3 121 9 331 12 468 l7 247 -394 -1 c-368 0 -397 -1 -445
-20z"/>
<path d="M2966 3023 c-3 -10 -33 -146 -66 -303 -34 -157 -113 -523 -176 -815
-103 -474 -115 -538 -111 -605 8 -150 104 -266 252 -305 49 -12 134 -15 486
-15 399 0 428 1 433 18 3 9 33 161 66 337 34 176 64 328 66 338 5 16 -12 17
-251 17 -240 0 -256 1 -251 18 5 16 276 1320 276 1328 0 2 -162 4 -359 4 -334
0 -360 -1 -365 -17z"/>
</g>
<g transform="translate(0,338) scale(0.100000,-0.100000)"
fill="#F1612E" stroke="none">
<path d="M4415 3018 c-2 -7 -22 -96 -44 -198 -94 -432 -185 -853 -242 -1115
-33 -154 -75 -350 -94 -435 -136 -618 -197 -910 -192 -924 6 -14 30 -16 189
-16 224 1 297 10 373 45 121 58 195 172 235 365 11 58 28 135 36 173 l16 67
251 0 c335 0 460 19 656 97 151 60 289 152 406 270 77 78 181 226 170 244 -5
7 -4 10 2 6 10 -7 52 78 85 173 67 195 81 472 33 655 -38 147 -133 309 -222
378 -14 12 -38 32 -51 44 -14 13 -31 23 -38 23 -8 0 -14 4 -14 10 0 17 -156
89 -253 117 l-92 27 -603 3 c-491 4 -603 2 -607 -9z m1008 -495 c129 -46 226
-133 288 -258 100 -202 64 -427 -94 -588 -203 -206 -524 -205 -727 1 -104 106
-150 219 -150 367 1 190 113 370 285 454 134 65 262 73 398 24z"/>
<path d="M5208 2469 c-10 -5 -18 -18 -18 -28 0 -31 33 -51 83 -51 39 0 49 4
64 26 16 26 16 27 -6 45 -26 21 -94 25 -123 8z"/>
<path d="M4866 2269 c-18 -21 -26 -42 -26 -68 0 -42 14 -61 46 -61 53 0 87
106 46 143 -26 24 -37 21 -66 -14z"/>
<path d="M5584 2260 c-31 -12 -37 -57 -12 -107 22 -47 53 -57 82 -27 45 45
-13 156 -70 134z"/>
<path d="M5224 2112 c-67 -56 -54 -149 25 -173 85 -25 160 58 120 134 -20 36
-52 56 -89 56 -19 0 -44 -8 -56 -17z"/>
<path d="M5564 1896 c-28 -20 -48 -70 -40 -101 5 -20 13 -25 37 -25 53 0 107
79 82 119 -14 22 -53 25 -79 7z"/>
<path d="M4850 1865 c-28 -34 33 -125 84 -125 52 0 39 86 -18 124 -31 20 -50
20 -66 1z"/>
<path d="M5216 1669 c-66 -52 5 -103 90 -63 37 18 52 48 34 69 -19 23 -92 19
-124 -6z"/>
</g>
<g transform="translate(0,338) scale(0.100000,-0.100000)"
fill="#ffffff" stroke="none">
<path d="M3923 323 c42 -2 112 -2 155 0 42 1 7 3 -78 3 -85 0 -120 -2 -77 -3z"/>
<path d="M4223 323 c9 -2 23 -2 30 0 6 3 -1 5 -18 5 -16 0 -22 -2 -12 -5z"/>
</g>
</svg>
